<?xml version="1.0" encoding="utf-8"?>
<!-- Generator: Adobe Illustrator 27.5.0, SVG Export Plug-In . SVG Version: 6.00 Build 0)  -->
<svg version="1.1" id="Layer_1" xmlns="http://www.w3.org/2000/svg" xmlns:xlink="http://www.w3.org/1999/xlink" x="0px" y="0px"
	 viewBox="0 0 110.9 88.7" style="enable-background:new 0 0 110.9 88.7;" xml:space="preserve">
<style type="text/css">
	.st0{stroke:#000000;stroke-width:0.216;stroke-miterlimit:2.6131;}
</style>
<g>
	<path class="st0" d="M41.5,43.5c0-2.1-1.7-3.7-3.7-3.7c-2.1,0-3.7,1.7-3.7,3.7c0,2.1,1.7,3.7,3.7,3.7S41.5,45.6,41.5,43.5z"/>
	<path class="st0" d="M110.7,43.5c-0.5-1.5-2.1-2.3-3.6-1.8l-4.9,1.6c-0.8-5-2.8-10.4-6.1-16.2L96,2.8c0-0.7-0.3-1.4-0.8-1.9
		c-1.1-1.1-2.9-1.2-4-0.1L79,12.1C70.7,8.6,62.5,7,54.3,7C46.1,7.1,38,8.8,29.9,12.1L19.1,1.8C18.6,1.3,18,1,17.2,1
		c-1.6-0.1-2.9,1.1-3,2.7l-1.1,23.4C10.3,32.7,8.5,38,7.7,42.9l-3.8-1.2c-1.5-0.5-3.1,0.3-3.6,1.8s0.3,3.1,1.8,3.6l5.1,1.7
		c-0.1,4.6,0.7,8.9,2.1,12.8l-2.8,0.3C5,62.1,3.9,63.5,4,65.1c0.1,1.6,1.6,2.7,3.2,2.5l4.6-0.6c0.2,0.3,0.4,0.6,0.6,0.9
		c3.4,5.5,8.3,10.1,14.1,13.5l0,0c2.5,1,4.9,2.3,7.3,3.5c7,2.6,14,3.9,21,3.8c3.6,0,7.2-0.5,10.8-1.2c3.3-0.7,6.6-1.7,9.7-3
		c0.6-0.2,1.2-0.5,1.8-0.8c2.5-1.6,4.9-3.1,7.5-4.5c0.2-0.1,0.4-0.2,0.5-0.3c3.9-2.8,7.4-6.2,10.5-10.3c0.4-0.6,0.8-1.2,1.2-1.7
		l6.2,0.8c1.6,0.2,3-0.9,3.2-2.5c0.2-1.6-0.9-3-2.5-3.2l-3.9-0.5c1.7-3.8,2.6-7.7,2.8-12c0-0.1,0-0.3,0-0.4l6.2-2
		C110.3,46.7,111.2,45,110.7,43.5z M93.9,60.8L81,59c-1.6-0.2-3,0.9-3.2,2.5s0.9,3,2.5,3.2l10.2,1.4c-5,6.3-11.3,10.8-18.2,13.5
		c-2.2,0.8-4.4,1.5-6.6,2c-5.7,1.3-11.7,1.6-17.4,1c-6.5-0.8-12.7-2.7-18.1-5.7c-4.8-2.7-8.9-6.3-11.9-10.6l12.5-1.5
		c1.6-0.2,2.7-1.6,2.5-3.2s-1.6-2.7-3.2-2.5l-14.8,1.8c-1.3-3.1-2.1-6.5-2.2-10.2L29.6,56c1.5,0.5,3.1-0.3,3.6-1.8s-0.3-3.1-1.8-3.6
		l-18-5.8c0.7-4.8,2.3-10,5.2-15.6c0.2-0.4,0.3-0.8,0.3-1.2l0.8-17.7l7.7,7.3c0.9,0.8,2.1,1,3.1,0.6c8-3.4,15.9-5.3,23.9-5.4
		c8-0.1,16,1.6,24.1,5.3c1.1,0.5,2.4,0.2,3.3-0.6l8.6-8.1l0.1,18.5c0,0.5,0.1,1,0.4,1.4c3.4,5.8,5.2,11,5.9,15.8l-17,5.5
		c-1.5,0.5-2.3,2.1-1.8,3.6s2.1,2.3,3.6,1.8l15.3-5C96.5,54.5,95.5,57.7,93.9,60.8z"/>
	<path class="st0" d="M69.1,62c-1.3,0.5-2.5,0.7-3.6,0.6c-1.5,0-2.9-0.5-4.1-1.3c-1.2-0.9-2.2-2.2-2.9-4.1c-0.4-1.3-0.7-2.7-0.8-4.4
		h1.6c1.6,0,2.9-1.3,2.9-2.9S60.9,47,59.3,47h-8.9c-1.6,0-2.9,1.3-2.9,2.9c0,1.6,1.3,2.9,2.9,2.9l0,0h1.5c-0.1,4.8-1.2,7.3-2.8,8.5
		c-1.8,1.3-4.7,1.2-8,0.8c-1.6-0.2-3,0.9-3.2,2.4c-0.2,1.6,0.9,3,2.4,3.2c4.6,0.6,8.8,0.6,12.2-1.9c1-0.8,1.9-1.7,2.6-2.9
		c0.8,1.2,1.8,2.1,2.9,2.9c2.1,1.6,4.6,2.4,7.3,2.4c1.9,0,3.8-0.3,5.7-1c1.5-0.5,2.3-2.2,1.8-3.6C72.2,62.3,70.5,61.5,69.1,62z"/>
	<path class="st0" d="M72.2,39.8c-2.1,0-3.7,1.7-3.7,3.7c0,2.1,1.7,3.7,3.7,3.7c2.1,0,3.7-1.7,3.7-3.7
		C75.9,41.4,74.2,39.8,72.2,39.8z"/>
</g>
</svg>
