<svg version="1.1" id="Layer_1" xmlns="http://www.w3.org/2000/svg" xmlns:xlink="http://www.w3.org/1999/xlink" x="0px" y="0px"
	 width="100%" viewBox="0 0 200 200" enable-background="new 0 0 200 200" xml:space="preserve">
<path fill="#FEFEFF" opacity="1.000000" stroke="none" 
	d="
M116.000000,201.000000 
	C77.357201,201.000000 39.214397,201.000000 1.035799,201.000000 
	C1.035799,134.398911 1.035799,67.797783 1.035799,1.098330 
	C67.559296,1.098330 134.118790,1.098330 200.839142,1.098330 
	C200.839142,67.666351 200.839142,134.333145 200.839142,201.000000 
	C172.798065,201.000000 144.649033,201.000000 116.000000,201.000000 
M69.690590,143.698837 
	C74.203156,135.673264 81.079514,130.279236 89.944893,126.173485 
	C94.139397,125.398766 98.304871,124.347023 102.534119,123.903931 
	C113.062332,122.800896 120.218483,115.342705 121.308296,104.827026 
	C121.827698,99.815277 123.524330,94.925545 125.021095,89.347313 
	C130.042343,79.649315 137.759216,72.949295 148.640671,68.887764 
	C151.900696,68.280991 155.137558,67.378220 158.424927,67.120979 
	C169.920731,66.221443 178.001495,58.102573 177.969223,47.205734 
	C177.937820,36.610043 169.512695,27.934439 158.744141,27.409077 
	C148.358505,26.902393 139.433609,34.963020 138.142883,45.873505 
	C137.658035,49.972023 136.884430,54.036388 135.962341,58.764267 
	C131.569214,69.088936 124.238853,76.566292 113.359871,81.417023 
	C108.998459,82.296577 104.673462,83.526970 100.268211,83.984291 
	C90.418060,85.006874 83.151169,91.950340 81.764206,101.811234 
	C81.052307,106.872665 79.849907,111.865120 78.405792,117.388321 
	C74.818542,125.259178 68.977470,131.108780 61.169178,135.934799 
	C58.781052,137.034698 56.392921,138.134583 53.223881,139.242554 
	C50.120407,139.762039 47.035027,140.522415 43.910164,140.757080 
	C33.381844,141.547760 25.363985,149.489609 24.983744,159.732727 
	C24.606441,169.896637 31.990517,178.838852 41.795486,180.091995 
	C52.900478,181.511261 61.996674,175.193787 64.222656,164.269455 
	C65.047295,160.222443 65.333618,156.065735 66.106964,151.283905 
	C67.128502,148.894409 68.150040,146.504898 69.690590,143.698837 
M75.291428,63.380638 
	C73.830475,63.578354 72.366302,63.755032 70.909142,63.977585 
	C65.723816,64.769554 61.814617,69.468048 62.190845,74.436081 
	C62.565228,79.379768 66.654503,83.531006 71.529152,83.915909 
	C76.618408,84.317741 81.237503,80.593956 82.094833,75.377785 
	C82.388870,73.588799 82.635887,71.792076 83.348000,69.486313 
	C85.233154,67.919113 87.118309,66.351913 89.753677,64.831863 
	C91.846527,64.879776 93.998428,64.627266 96.022484,65.025154 
	C107.755035,67.331535 118.799026,59.792591 120.131210,48.427094 
	C121.544884,36.366432 113.306671,26.273390 101.682236,25.824326 
	C89.472198,25.352638 80.377975,34.433575 80.806557,46.727272 
	C80.916565,49.882759 81.196571,53.032314 81.135101,56.844841 
	C79.439995,58.975323 77.744888,61.105804 75.291428,63.380638 
M120.474960,137.493607 
	C118.331398,139.089813 116.187836,140.686020 113.308456,142.208176 
	C110.693626,142.073624 108.066101,142.058640 105.466286,141.782623 
	C96.798431,140.862366 88.651039,145.365158 85.126427,153.128586 
	C81.667542,160.747253 83.377014,169.889114 89.343040,175.678070 
	C95.466637,181.619934 104.800430,182.947281 112.446861,178.963669 
	C120.005798,175.025589 124.182274,166.586197 122.814545,158.039413 
	C122.474823,155.916565 122.173225,153.787628 122.109566,151.059128 
	C123.998077,148.612091 125.886597,146.165070 128.556412,143.602722 
	C129.849670,143.414825 131.139877,143.201904 132.436722,143.043396 
	C137.775955,142.390762 141.542862,138.196442 141.468658,132.965149 
	C141.397583,127.955139 137.639801,123.760292 132.657959,123.129723 
	C127.594612,122.488831 122.956818,125.876862 121.810890,131.177246 
	C121.392815,133.111008 121.245544,135.103287 120.474960,137.493607 
M141.424683,97.244652 
	C138.323074,107.293404 140.856232,115.826813 148.508682,121.108459 
	C155.676437,126.055580 165.010651,125.874557 171.793304,120.656921 
	C178.406952,115.569283 181.150299,107.356735 178.920105,99.321999 
	C176.858429,91.894417 170.152145,86.064285 162.554703,85.094673 
	C153.759537,83.972206 146.436676,88.008858 141.424683,97.244652 
M63.904423,102.463982 
	C63.632179,100.665039 63.511211,98.827339 63.061829,97.073792 
	C60.978600,88.944794 54.216179,83.276909 45.561604,82.284767 
	C37.961056,81.413445 29.563198,86.277290 26.066153,93.576073 
	C22.464081,101.094055 23.688173,109.844261 29.489225,115.771385 
	C35.048382,121.451363 41.828194,123.505371 49.547150,121.174583 
	C58.330135,118.522514 62.747898,112.180626 63.904423,102.463982 
M172.455368,149.920609 
	C161.753143,154.841248 153.801788,162.600845 148.729065,173.217255 
	C146.617264,177.636917 148.060226,179.891098 152.932587,179.956329 
	C159.929138,180.050003 166.943680,180.224960 173.913300,179.780792 
	C175.430557,179.684097 177.938492,177.185318 178.027893,175.676575 
	C178.460770,168.371140 178.253189,161.025894 178.212723,153.695099 
	C178.194275,150.353485 176.687729,148.694427 172.455368,149.920609 
M45.087101,49.742752 
	C50.245762,45.033554 51.532166,39.958675 48.897842,34.709316 
	C46.598679,30.127825 41.363781,27.473837 36.449432,28.467545 
	C31.626179,29.442833 28.282881,32.253254 27.097197,37.044151 
	C25.989059,41.521694 26.891800,45.732376 30.589325,48.808167 
	C34.827469,52.333668 39.500229,52.994949 45.087101,49.742752 
z"/>
<path fill="#2D7DE9" opacity="1.000000" stroke="none" 
	d="
M124.687698,89.980537 
	C123.524330,94.925545 121.827698,99.815277 121.308296,104.827026 
	C120.218483,115.342705 113.062332,122.800896 102.534119,123.903931 
	C98.304871,124.347023 94.139397,125.398766 89.338341,125.917801 
	C85.444252,122.737656 82.156715,119.813202 78.869179,116.888741 
	C79.849907,111.865120 81.052307,106.872665 81.764206,101.811234 
	C83.151169,91.950340 90.418060,85.006874 100.268211,83.984291 
	C104.673462,83.526970 108.998459,82.296577 113.816376,81.667648 
	C117.744492,84.605698 121.216095,87.293121 124.687698,89.980537 
z"/>
<path fill="#2E7EEB" opacity="1.000000" stroke="none" 
	d="
M136.242477,58.116325 
	C136.884430,54.036388 137.658035,49.972023 138.142883,45.873505 
	C139.433609,34.963020 148.358505,26.902393 158.744141,27.409077 
	C169.512695,27.934439 177.937820,36.610043 177.969223,47.205734 
	C178.001495,58.102573 169.920731,66.221443 158.424927,67.120979 
	C155.137558,67.378220 151.900696,68.280991 148.023132,68.631042 
	C143.684555,64.954987 139.963516,61.535656 136.242477,58.116325 
z"/>
<path fill="#2D80ED" opacity="1.000000" stroke="none" 
	d="
M65.865448,151.959061 
	C65.333618,156.065735 65.047295,160.222443 64.222656,164.269455 
	C61.996674,175.193787 52.900478,181.511261 41.795486,180.091995 
	C31.990517,178.838852 24.606441,169.896637 24.983744,159.732727 
	C25.363985,149.489609 33.381844,141.547760 43.910164,140.757080 
	C47.035027,140.522415 50.120407,139.762039 53.688148,139.556427 
	C58.056759,143.899872 61.961102,147.929474 65.865448,151.959061 
z"/>
<path fill="#2D80ED" opacity="1.000000" stroke="none" 
	d="
M81.398483,56.184597 
	C81.196571,53.032314 80.916565,49.882759 80.806557,46.727272 
	C80.377975,34.433575 89.472198,25.352638 101.682236,25.824326 
	C113.306671,26.273390 121.544884,36.366432 120.131210,48.427094 
	C118.799026,59.792591 107.755035,67.331535 96.022484,65.025154 
	C93.998428,64.627266 91.846527,64.879776 89.304718,64.490265 
	C86.370003,61.493969 83.884239,58.839283 81.398483,56.184597 
z"/>
<path fill="#2D80ED" opacity="1.000000" stroke="none" 
	d="
M121.854095,151.661484 
	C122.173225,153.787628 122.474823,155.916565 122.814545,158.039413 
	C124.182274,166.586197 120.005798,175.025589 112.446861,178.963669 
	C104.800430,182.947281 95.466637,181.619934 89.343040,175.678070 
	C83.377014,169.889114 81.667542,160.747253 85.126427,153.128586 
	C88.651039,145.365158 96.798431,140.862366 105.466286,141.782623 
	C108.066101,142.058640 110.693626,142.073624 113.783478,142.541443 
	C116.790359,145.803635 119.322227,148.732559 121.854095,151.661484 
z"/>
<path fill="#2F81EE" opacity="1.000000" stroke="none" 
	d="
M141.602112,96.895714 
	C146.436676,88.008858 153.759537,83.972206 162.554703,85.094673 
	C170.152145,86.064285 176.858429,91.894417 178.920105,99.321999 
	C181.150299,107.356735 178.406952,115.569283 171.793304,120.656921 
	C165.010651,125.874557 155.676437,126.055580 148.508682,121.108459 
	C140.856232,115.826813 138.323074,107.293404 141.602112,96.895714 
z"/>
<path fill="#2E81EE" opacity="1.000000" stroke="none" 
	d="
M63.895977,102.882462 
	C62.747898,112.180626 58.330135,118.522514 49.547150,121.174583 
	C41.828194,123.505371 35.048382,121.451363 29.489225,115.771385 
	C23.688173,109.844261 22.464081,101.094055 26.066153,93.576073 
	C29.563198,86.277290 37.961056,81.413445 45.561604,82.284767 
	C54.216179,83.276909 60.978600,88.944794 63.061829,97.073792 
	C63.511211,98.827339 63.632179,100.665039 63.895977,102.882462 
z"/>
<path fill="#1F2069" opacity="1.000000" stroke="none" 
	d="
M172.808197,149.775284 
	C176.687729,148.694427 178.194275,150.353485 178.212723,153.695099 
	C178.253189,161.025894 178.460770,168.371140 178.027893,175.676575 
	C177.938492,177.185318 175.430557,179.684097 173.913300,179.780792 
	C166.943680,180.224960 159.929138,180.050003 152.932587,179.956329 
	C148.060226,179.891098 146.617264,177.636917 148.729065,173.217255 
	C153.801788,162.600845 161.753143,154.841248 172.808197,149.775284 
z"/>
<path fill="#22236B" opacity="1.000000" stroke="none" 
	d="
M44.758095,49.937008 
	C39.500229,52.994949 34.827469,52.333668 30.589325,48.808167 
	C26.891800,45.732376 25.989059,41.521694 27.097197,37.044151 
	C28.282881,32.253254 31.626179,29.442833 36.449432,28.467545 
	C41.363781,27.473837 46.598679,30.127825 48.897842,34.709316 
	C51.532166,39.958675 50.245762,45.033554 44.758095,49.937008 
z"/>
<path fill="#233484" opacity="1.000000" stroke="none" 
	d="
M136.102417,58.440296 
	C139.963516,61.535656 143.684555,64.954987 147.610718,68.612877 
	C137.759216,72.949295 130.042343,79.649315 124.854401,89.663925 
	C121.216095,87.293121 117.744492,84.605698 114.185425,81.618729 
	C124.238853,76.566292 131.569214,69.088936 136.102417,58.440296 
z"/>
<path fill="#2F80EC" opacity="1.000000" stroke="none" 
	d="
M120.974731,137.068878 
	C121.245544,135.103287 121.392815,133.111008 121.810890,131.177246 
	C122.956818,125.876862 127.594612,122.488831 132.657959,123.129723 
	C137.639801,123.760292 141.397583,127.955139 141.468658,132.965149 
	C141.542862,138.196442 137.775955,142.390762 132.436722,143.043396 
	C131.139877,143.201904 129.849670,143.414825 127.940109,143.458313 
	C125.207443,141.232239 123.091087,139.150558 120.974731,137.068878 
z"/>
<path fill="#2F80EC" opacity="1.000000" stroke="none" 
	d="
M82.904381,69.998894 
	C82.635887,71.792076 82.388870,73.588799 82.094833,75.377785 
	C81.237503,80.593956 76.618408,84.317741 71.529152,83.915909 
	C66.654503,83.531006 62.565228,79.379768 62.190845,74.436081 
	C61.814617,69.468048 65.723816,64.769554 70.909142,63.977585 
	C72.366302,63.755032 73.830475,63.578354 75.857803,63.568672 
	C78.584251,65.837433 80.744316,67.918167 82.904381,69.998894 
z"/>
<path fill="#24307E" opacity="1.000000" stroke="none" 
	d="
M78.637482,117.138535 
	C82.156715,119.813202 85.444252,122.737656 88.942078,125.939667 
	C81.079514,130.279236 74.203156,135.673264 69.147110,143.714661 
	C66.359772,141.095154 64.115898,138.459808 61.872032,135.824478 
	C68.977470,131.108780 74.818542,125.259178 78.637482,117.138535 
z"/>
<path fill="#2858B6" opacity="1.000000" stroke="none" 
	d="
M61.520607,135.879639 
	C64.115898,138.459808 66.359772,141.095154 68.887604,143.922943 
	C68.150040,146.504898 67.128502,148.894409 65.986206,151.621490 
	C61.961102,147.929474 58.056759,143.899872 54.078606,139.552383 
	C56.392921,138.134583 58.781052,137.034698 61.520607,135.879639 
z"/>
<path fill="#253888" opacity="1.000000" stroke="none" 
	d="
M83.126190,69.742599 
	C80.744316,67.918167 78.584251,65.837433 76.236984,63.496498 
	C77.744888,61.105804 79.439995,58.975323 81.266792,56.514717 
	C83.884239,58.839283 86.370003,61.493969 88.929611,64.466690 
	C87.118309,66.351913 85.233154,67.919113 83.126190,69.742599 
z"/>
<path fill="#233586" opacity="1.000000" stroke="none" 
	d="
M120.724846,137.281250 
	C123.091087,139.150558 125.207443,141.232239 127.549454,143.515961 
	C125.886597,146.165070 123.998077,148.612091 121.981827,151.360306 
	C119.322227,148.732559 116.790359,145.803635 114.151382,142.578461 
	C116.187836,140.686020 118.331398,139.089813 120.724846,137.281250 
z"/>
</svg>